<svg fill="none" height="40" viewBox="0 0 40 40" width="40" xmlns="http://www.w3.org/2000/svg">
  <g clip-path="url(#clip0)">
    <path
      d="M21.2 29.5516C23.27 29.5516 24.948 27.7892 24.948 25.6151C24.948 23.4411 23.27 21.6787 21.2 21.6787C19.1301 21.6787 17.452 23.4411 17.452 25.6151C17.452 27.7892 19.1301 29.5516 21.2 29.5516Z"
      fill="#F1F1F6"/>
    <path
      d="M18.7939 31.2039H23.6062C26.4287 31.2039 28.7423 33.6338 28.7423 36.5983V40.0002H13.6578V36.5983C13.6578 33.6338 15.9714 31.2039 18.7939 31.2039Z"
      fill="#F1F1F6"/>
    <path
      d="M8.33654 28.774H13.1488C14.9534 28.774 16.6192 29.7946 17.5446 31.3983C15.2773 32.0301 13.6578 34.1684 13.6578 36.6469V37.6189H3.20039V34.217C3.15412 31.2039 5.4677 28.774 8.33654 28.774Z"
      fill="#F1F1F6"/>
    <path
      d="M29.2513 28.774H34.0636C36.8861 28.774 39.1997 31.2039 39.1997 34.1684V37.5703H28.7423V36.5983C28.7423 34.1198 27.1228 31.9815 24.8555 31.3497C25.8272 29.746 27.493 28.774 29.2513 28.774Z"
      fill="#F1F1F6"/>
    <path
      d="M10.7427 27.0731C12.8126 27.0731 14.4907 25.3107 14.4907 23.1366C14.4907 20.9626 12.8126 19.2002 10.7427 19.2002C8.6727 19.2002 6.99466 20.9626 6.99466 23.1366C6.99466 25.3107 8.6727 27.0731 10.7427 27.0731Z"
      fill="#F1F1F6"/>
    <path
      d="M31.6574 27.0731C33.7274 27.0731 35.4054 25.3107 35.4054 23.1366C35.4054 20.9626 33.7274 19.2002 31.6574 19.2002C29.5875 19.2002 27.9094 20.9626 27.9094 23.1366C27.9094 25.3107 29.5875 27.0731 31.6574 27.0731Z"
      fill="#F1F1F6"/>
    <path
      d="M31.7001 27.5723H27.3651C26.4692 27.5717 25.5885 27.8035 24.8089 28.2451C24.1455 28.6215 23.5715 29.1374 23.1268 29.7572C22.8306 29.7054 22.5304 29.6796 22.2296 29.6798H17.8907C17.59 29.6795 17.2898 29.7054 16.9936 29.7572C16.549 29.1373 15.975 28.6214 15.3114 28.2451C14.5319 27.8035 13.6512 27.5717 12.7553 27.5723H8.42026C5.53968 27.5786 3.20609 29.9122 3.19971 32.7928V35.7357C3.20183 36.0439 3.45223 36.2925 3.76043 36.2925H12.6547V37.8394C12.6547 38.149 12.9058 38.4001 13.2154 38.4001H26.8894C27.1991 38.4001 27.4502 38.149 27.4502 37.8394V36.2925H36.3444C36.6541 36.2925 36.9052 36.0415 36.9052 35.7318V32.7928C36.8988 29.9182 34.5746 27.5872 31.7001 27.5723ZM12.7127 34.3977V34.5175C12.7127 34.5717 12.7127 34.622 12.7127 34.6761V34.9004V35.1711H4.32116V32.7928C4.32754 30.5316 6.15899 28.7001 8.42026 28.6937H12.7553C13.4572 28.6929 14.1474 28.8741 14.7584 29.2196C15.168 29.4513 15.5355 29.7508 15.8451 30.1052C14.1001 30.8626 12.9017 32.5049 12.7127 34.3977ZM26.3171 34.9004V37.2825H13.7916V34.8578C13.7916 34.8141 13.7916 34.7715 13.7916 34.7302C13.7916 34.6632 13.7916 34.5961 13.7916 34.5291V34.4286C13.7916 34.3899 13.7916 34.3513 13.7916 34.3126V34.1888V34.1502V34.1076V34.0226L13.8148 33.9297L13.8535 33.7905L13.8806 33.6977C14.4361 32.0141 16.0057 30.8742 17.7786 30.867L17.8907 30.8051H22.2296C24.2885 30.8127 26.025 32.3409 26.2939 34.3822C26.2939 34.4673 26.2939 34.5523 26.3171 34.6374C26.3171 34.7251 26.3171 34.8127 26.3171 34.9004ZM35.7992 35.1749H27.4463V34.8385C27.4463 34.796 27.4463 34.7534 27.4463 34.7109C27.4463 34.6671 27.4463 34.6232 27.4463 34.5794C27.4463 34.5175 27.4463 34.4518 27.4463 34.3899V34.3319V34.2662V34.1463V34.127V34.0806V34.038V34.011V33.9607V33.9065V33.8795V33.8447V33.8099V33.7751V33.69V33.6513V33.601V33.5508L27.4192 33.4541V33.4154V33.3806V33.3536V33.3149V33.2646L27.3651 33.1138C26.8612 31.7743 25.8335 30.6978 24.5189 30.1323C24.7515 29.7879 25.0344 29.4803 25.3581 29.2196C25.9691 28.8741 26.6592 28.6929 27.3612 28.6937H31.7001C33.9613 28.7001 35.7928 30.5316 35.7992 32.7928V35.1749Z"
      fill="#B8B8D2" stroke="#B8B8D2" stroke-width="0.9"/>
    <path
      d="M20.0834 9.76059C20.4337 9.76059 20.7176 9.47665 20.7176 9.12639C20.7176 8.77613 20.4337 8.49219 20.0834 8.49219C19.7332 8.49219 19.4492 8.77613 19.4492 9.12639C19.4492 9.47665 19.7332 9.76059 20.0834 9.76059Z"
      fill="#B8B8D2" stroke="#B8B8D2" stroke-width="0.9"/>
    <path
      d="M13.3781 19.8886C12.6392 19.1454 11.6341 18.7277 10.5861 18.7285C8.4055 18.7266 6.63621 20.4927 6.63428 22.6733C6.63235 24.8539 8.39844 26.6232 10.5791 26.6251C12.7597 26.627 14.5289 24.8609 14.5309 22.6803C14.5317 21.6338 14.1172 20.6297 13.3781 19.8886ZM12.5853 24.6722C11.4816 25.7764 9.69179 25.7767 8.58754 24.673C7.48339 23.5692 7.48301 21.7794 8.58677 20.6752C9.69053 19.5711 11.4803 19.5707 12.5846 20.6744C13.1147 21.2044 13.4127 21.9233 13.4129 22.6729C13.414 23.423 13.1162 24.1424 12.5853 24.6722Z"
      fill="#B8B8D2" stroke="#B8B8D2" stroke-width="0.9"/>
    <path
      d="M24.183 9.76059C24.5333 9.76059 24.8172 9.47665 24.8172 9.12639C24.8172 8.77613 24.5333 8.49219 24.183 8.49219C23.8328 8.49219 23.5488 8.77613 23.5488 9.12639C23.5488 9.47665 23.8328 9.76059 24.183 9.76059Z"
      fill="#B8B8D2" stroke="#B8B8D2" stroke-width="0.9"/>
    <path
      d="M26.6645 3.79756C24.7729 2.34277 22.4457 1.56887 20.0595 1.60106C17.6733 1.56887 15.3462 2.34277 13.4545 3.79756C11.7221 5.18198 10.6509 7.10778 10.6509 9.23855C10.653 10.3207 10.9283 11.3849 11.4514 12.3322C11.9491 13.2271 12.6179 14.0155 13.4197 14.6525L12.975 17.6108C12.9287 17.9148 13.1377 18.1988 13.4418 18.2451C13.5677 18.2642 13.6964 18.2397 13.8064 18.1754L16.8305 16.412C17.3097 16.5545 17.7981 16.6643 18.2922 16.7407C18.8783 16.831 19.4704 16.8762 20.0634 16.876C22.4495 16.9082 24.7767 16.1343 26.6683 14.6795C28.3969 13.2912 29.4681 11.3693 29.4681 9.23855C29.4681 7.10778 28.3969 5.18198 26.6645 3.79756ZM25.9684 13.8133C24.2722 15.1038 22.1905 15.785 20.0595 15.7468C19.5249 15.7476 18.9909 15.7076 18.4624 15.627C17.938 15.5486 17.4208 15.4283 16.9155 15.2673C16.7656 15.22 16.6027 15.2382 16.467 15.3176L14.2589 16.6208L14.5798 14.4939C14.6105 14.2861 14.5224 14.0787 14.3517 13.9564C13.5585 13.3824 12.8989 12.6437 12.4181 11.7908C11.9881 11.0088 11.7621 10.131 11.7607 9.23855C11.7607 7.45969 12.6695 5.84325 14.139 4.66766C15.8352 3.37712 17.9168 2.69593 20.0479 2.73412C22.1789 2.69593 24.2606 3.37712 25.9568 4.66766C27.4263 5.82778 28.335 7.45969 28.335 9.23855C28.335 11.0174 27.4379 12.6338 25.9684 13.8133Z"
      fill="#B8B8D2" stroke="#B8B8D2" stroke-width="0.9"/>
    <path
      d="M29.5377 18.7251C27.3572 18.7232 25.5879 20.4893 25.5859 22.6699C25.585 23.7164 25.9996 24.7206 26.7387 25.4616C27.4776 26.2048 28.4827 26.6225 29.5308 26.6217C31.7113 26.6236 33.4806 24.8575 33.4825 22.6769C33.4845 20.4962 31.7183 18.727 29.5377 18.7251ZM31.5338 24.671C30.43 25.7752 28.6403 25.7756 27.536 24.6718C27.0058 24.1418 26.7079 23.4229 26.7077 22.6733C26.7066 21.9233 27.0044 21.2038 27.5352 20.674C28.639 19.5699 30.4288 19.5695 31.533 20.6732C32.6372 21.777 32.6376 23.5669 31.5338 24.671Z"
      fill="#B8B8D2" stroke="#B8B8D2" stroke-width="0.9"/>
    <path
      d="M15.9853 9.76059C16.3355 9.76059 16.6195 9.47665 16.6195 9.12639C16.6195 8.77613 16.3355 8.49219 15.9853 8.49219C15.635 8.49219 15.3511 8.77613 15.3511 9.12639C15.3511 9.47665 15.635 9.76059 15.9853 9.76059Z"
      fill="#B8B8D2" stroke="#B8B8D2" stroke-width="0.9"/>
    <path
      d="M22.8459 21.982C22.1061 21.2447 21.1041 20.8311 20.0597 20.8315C19.0116 20.8308 18.0066 21.2484 17.2677 21.9917C15.7299 23.5347 15.7343 26.0322 17.2773 27.5699C18.8204 29.1077 21.3178 29.1033 22.8556 27.5603C24.3933 26.0172 24.389 23.5197 22.8459 21.982ZM20.0589 27.6098C18.4977 27.6093 17.2325 26.3433 17.2329 24.7822C17.2332 23.221 18.4993 21.9557 20.0605 21.9561C20.8101 21.9563 21.529 22.2542 22.059 22.7844C22.5898 23.3142 22.8876 24.0337 22.8865 24.7837C22.886 26.3449 21.6201 27.6102 20.0589 27.6098Z"
      fill="#B8B8D2" stroke="#B8B8D2" stroke-width="0.9"/>
  </g>
  <defs>
    <clipPath id="clip0">
      <rect fill="white" height="40" width="40"/>
    </clipPath>
  </defs>
</svg>
