<svg width="20" height="20" viewBox="0 0 20 20" fill="none" xmlns="http://www.w3.org/2000/svg">
<path d="M13.3333 3.33337H6.66665C6.20831 3.33337 5.83331 3.70837 5.83331 4.16671V15C5.83331 15.4584 6.20831 15.8334 6.66665 15.8334H13.3333C13.7916 15.8334 14.1666 15.4584 14.1666 15V4.16671C14.1666 3.70837 13.7916 3.33337 13.3333 3.33337Z" fill="#fff"/>
<path d="M3.33333 5C2.875 5 2.5 5.375 2.5 5.83333V13.3333C2.5 13.7917 2.875 14.1667 3.33333 14.1667C3.79167 14.1667 4.16667 13.7917 4.16667 13.3333V5.83333C4.16667 5.375 3.79167 5 3.33333 5Z" fill="#fff"/>
<path d="M16.6666 5C16.2083 5 15.8333 5.375 15.8333 5.83333V13.3333C15.8333 13.7917 16.2083 14.1667 16.6666 14.1667C17.125 14.1667 17.5 13.7917 17.5 13.3333V5.83333C17.5 5.375 17.125 5 16.6666 5Z" fill="#fff"/>
</svg>
