<svg width="145" height="38" viewBox="0 0 130 38" fill="none" xmlns="http://www.w3.org/2000/svg">
<path d="M6.81511 26.5172C4.8704 26.5172 3.24406 25.8632 1.93611 24.5553C0.64537 23.2473 0 21.6382 0 19.7279C0 17.8004 0.64537 16.1913 1.93611 14.9005C3.24406 13.5926 4.8704 12.9386 6.81511 12.9386C8.07143 12.9386 9.21589 13.2398 10.2485 13.8421C11.2811 14.4445 12.0555 15.2533 12.5718 16.2687L10.171 17.6627C9.87847 17.0432 9.43101 16.5613 8.82867 16.2171C8.24353 15.8557 7.56374 15.675 6.7893 15.675C5.65345 15.675 4.6983 16.0622 3.92385 16.8366C3.16662 17.6111 2.788 18.5748 2.788 19.7279C2.788 20.881 3.16662 21.8447 3.92385 22.6192C4.6983 23.3936 5.65345 23.7808 6.7893 23.7808C7.54653 23.7808 8.22632 23.6001 8.82867 23.2387C9.44822 22.8773 9.91289 22.3954 10.2227 21.7931L12.6234 23.1613C12.0727 24.1939 11.2811 25.0113 10.2485 25.6137C9.21589 26.216 8.07143 26.5172 6.81511 26.5172Z" fill="#33334F"/>
<path d="M43.4461 12.9386C44.9262 12.9386 46.1223 13.4119 47.0344 14.3584C47.9465 15.305 48.4026 16.6043 48.4026 18.2565V26.1816H45.6146V18.5404C45.6146 17.5767 45.3564 16.8366 44.8401 16.3203C44.3238 15.804 43.6182 15.5459 42.7233 15.5459C41.7424 15.5459 40.9507 15.8557 40.3484 16.4752C39.746 17.0776 39.4448 18.0069 39.4448 19.2632V26.1816H36.6568V13.2742H39.4448V14.9263C40.2881 13.6012 41.6219 12.9386 43.4461 12.9386Z" fill="#33334F"/>
<path d="M59.1797 13.2742H62.2258L57.1919 26.1816H53.9651L48.9312 13.2742H51.9773L55.5914 23.0838L59.1797 13.2742Z" fill="#33334F"/>
<path d="M68.805 26.5172C66.9119 26.5172 65.3027 25.8632 63.9776 24.5553C62.6524 23.2473 61.9898 21.6382 61.9898 19.7279C61.9898 17.8176 62.6524 16.2085 63.9776 14.9005C65.3027 13.5926 66.9119 12.9386 68.805 12.9386C70.7153 12.9386 72.3244 13.5926 73.6323 14.9005C74.9575 16.2085 75.6201 17.8176 75.6201 19.7279C75.6201 21.6382 74.9575 23.2473 73.6323 24.5553C72.3244 25.8632 70.7153 26.5172 68.805 26.5172ZM65.9395 22.645C66.714 23.4194 67.6691 23.8066 68.805 23.8066C69.9408 23.8066 70.896 23.4194 71.6704 22.645C72.4449 21.8705 72.8321 20.8982 72.8321 19.7279C72.8321 18.5576 72.4449 17.5853 71.6704 16.8108C70.896 16.0364 69.9408 15.6492 68.805 15.6492C67.6691 15.6492 66.714 16.0364 65.9395 16.8108C65.1651 17.5853 64.7778 18.5576 64.7778 19.7279C64.7778 20.8982 65.1651 21.8705 65.9395 22.645Z" fill="#33334F"/>
<path d="M79.6185 16.8366C79.6185 17.2669 79.8509 17.6111 80.3155 17.8692C80.7974 18.1102 81.3739 18.3253 82.0451 18.5146C82.7335 18.6867 83.4219 18.8932 84.1103 19.1342C84.7987 19.3751 85.3752 19.7881 85.8399 20.3733C86.3218 20.9412 86.5627 21.664 86.5627 22.5417C86.5627 23.7808 86.0808 24.7532 85.1171 25.4588C84.1706 26.1644 82.9745 26.5172 81.5288 26.5172C80.2553 26.5172 79.1625 26.2504 78.2504 25.7169C77.3382 25.1834 76.6757 24.4434 76.2626 23.4969L78.6634 22.1029C79.1108 23.342 80.066 23.9615 81.5288 23.9615C82.9917 23.9615 83.7231 23.4797 83.7231 22.5159C83.7231 22.1029 83.4822 21.7673 83.0003 21.5091C82.5356 21.251 81.9591 21.0358 81.2707 20.8637C80.5995 20.6744 79.9197 20.4593 79.2313 20.2184C78.5429 19.9774 77.9578 19.5816 77.4759 19.0309C77.0112 18.463 76.7789 17.7488 76.7789 16.8883C76.7789 15.7008 77.2264 14.7456 78.1213 14.0228C79.0334 13.3 80.1607 12.9386 81.503 12.9386C82.57 12.9386 83.5166 13.1795 84.3427 13.6614C85.1859 14.1261 85.8313 14.7801 86.2788 15.6233L83.9296 16.9399C83.4822 15.9589 82.6733 15.4685 81.503 15.4685C80.9695 15.4685 80.5221 15.5889 80.1607 15.8299C79.7992 16.0536 79.6185 16.3892 79.6185 16.8366Z" fill="#33334F"/>
<path d="M90.7209 10.8218C90.3767 11.166 89.9637 11.3381 89.4818 11.3381C88.9999 11.3381 88.5783 11.166 88.2169 10.8218C87.8727 10.4604 87.7006 10.0387 87.7006 9.55686C87.7006 9.07498 87.8727 8.66194 88.2169 8.31775C88.5611 7.95634 88.9827 7.77563 89.4818 7.77563C89.9809 7.77563 90.4025 7.95634 90.7467 8.31775C91.0909 8.66194 91.263 9.07498 91.263 9.55686C91.263 10.0387 91.0823 10.4604 90.7209 10.8218ZM88.0878 26.1816V13.2742H90.8758V26.1816H88.0878Z" fill="#33334F"/>
<path d="M103.613 13.2742H106.349V25.5879C106.349 27.5498 105.704 29.0557 104.413 30.1055C103.122 31.1553 101.556 31.6802 99.7148 31.6802C96.7375 31.6802 94.6981 30.639 93.5967 28.5566L95.9974 27.1626C96.6686 28.4877 97.9249 29.1503 99.7664 29.1503C100.971 29.1503 101.909 28.8319 102.58 28.1952C103.269 27.5756 103.613 26.7065 103.613 25.5879V24.0132C102.563 25.5104 101.066 26.259 99.121 26.259C97.2968 26.259 95.7565 25.6137 94.5002 24.3229C93.2439 23.015 92.6157 21.4403 92.6157 19.5988C92.6157 17.7574 93.2439 16.1913 94.5002 14.9005C95.7565 13.5926 97.2968 12.9386 99.121 12.9386C101.066 12.9386 102.563 13.6872 103.613 15.1845V13.2742ZM96.5654 22.4901C97.357 23.2645 98.338 23.6518 99.5083 23.6518C100.679 23.6518 101.651 23.2645 102.425 22.4901C103.217 21.7156 103.613 20.7519 103.613 19.5988C103.613 18.4458 103.217 17.482 102.425 16.7076C101.651 15.9331 100.679 15.5459 99.5083 15.5459C98.338 15.5459 97.357 15.9331 96.5654 16.7076C95.7909 17.482 95.4037 18.4458 95.4037 19.5988C95.4037 20.7519 95.7909 21.7156 96.5654 22.4901Z" fill="#33334F"/>
<path d="M115.614 12.9386C117.094 12.9386 118.29 13.4119 119.202 14.3584C120.114 15.305 120.57 16.6043 120.57 18.2565V26.1816H117.782V18.5404C117.782 17.5767 117.524 16.8366 117.008 16.3203C116.491 15.804 115.786 15.5459 114.891 15.5459C113.91 15.5459 113.118 15.8557 112.516 16.4752C111.914 17.0776 111.612 18.0069 111.612 19.2632V26.1816H108.824V8.11123H111.612V14.9263C112.456 13.6012 113.789 12.9386 115.614 12.9386Z" fill="#33334F"/>
<path d="M130 15.9589H126.799V22.1545C126.799 22.688 126.919 23.0752 127.16 23.3162C127.401 23.5399 127.754 23.669 128.219 23.7034C128.701 23.7206 129.294 23.712 130 23.6776V26.1816C127.866 26.4398 126.334 26.259 125.405 25.6395C124.476 25.0027 124.011 23.8411 124.011 22.1545V15.9589H121.636V13.2742H124.011V10.4862L126.799 9.66012V13.2742H130V15.9589Z" fill="#33334F"/>
<circle cx="24.1718" cy="18.998" r="10.3593" fill="#00C389"/>
<rect x="19.8553" y="17.5305" width="1.83035" height="6.40622" rx="0.915174" fill="white"/>
<rect x="27.1767" y="15.7004" width="1.83035" height="8.23657" rx="0.915174" fill="white"/>
<rect x="23.5161" y="12.9546" width="1.83035" height="10.9821" rx="0.915174" fill="white"/>
<path d="M13.4624 12.5496C16.7192 6.72323 24.0826 4.64017 29.909 7.89697" stroke="#00C389" stroke-width="2"/>
<path d="M34.904 25.2712C31.6472 31.0976 24.2839 33.1806 18.4575 29.9238" stroke="#00C389" stroke-width="2"/>
</svg>
