<svg width="96" height="20" viewBox="0 0 96 20" fill="none" xmlns="http://www.w3.org/2000/svg">
<g clip-path="url(#clip0)">
<path d="M5.01446 15.4874C3.58357 15.4874 2.38694 15.0062 1.42456 14.0438C0.474855 13.0815 0 11.8975 0 10.4919C0 9.07371 0.474855 7.88973 1.42456 6.94003C2.38694 5.97765 3.58357 5.49647 5.01446 5.49647C5.93885 5.49647 6.78092 5.71807 7.54069 6.16126C8.30046 6.60446 8.87028 7.19961 9.25017 7.94672L7.48371 8.9724C7.26844 8.51654 6.93921 8.16199 6.49601 7.90873C6.06548 7.64281 5.5653 7.50985 4.99547 7.50985C4.15973 7.50985 3.45694 7.79476 2.88712 8.36459C2.32995 8.93442 2.05137 9.64353 2.05137 10.4919C2.05137 11.3403 2.32995 12.0495 2.88712 12.6193C3.45694 13.1891 4.15973 13.474 4.99547 13.474C5.55263 13.474 6.05281 13.3411 6.49601 13.0751C6.95187 12.8092 7.29377 12.4547 7.5217 12.0115L9.28815 13.0182C8.88295 13.7779 8.30046 14.3794 7.54069 14.8226C6.78092 15.2658 5.93885 15.4874 5.01446 15.4874Z" fill="white"/>
<path d="M31.9671 5.49647C33.0561 5.49647 33.9361 5.8447 34.6072 6.54115C35.2784 7.2376 35.6139 8.19364 35.6139 9.40927V15.2405H33.5626V9.61821C33.5626 8.90909 33.3726 8.36459 32.9927 7.98471C32.6129 7.60482 32.0937 7.41488 31.4352 7.41488C30.7134 7.41488 30.131 7.64281 29.6878 8.09867C29.2446 8.54187 29.023 9.22566 29.023 10.15V15.2405H26.9716V5.74339H29.023V6.95902C29.6434 5.98399 30.6248 5.49647 31.9671 5.49647Z" fill="white"/>
<path d="M43.5436 5.74339H45.7849L42.081 15.2405H39.7067L36.0029 5.74339H38.2442L40.9034 12.9612L43.5436 5.74339Z" fill="white"/>
<path d="M50.6257 15.4874C49.2328 15.4874 48.0488 15.0062 47.0738 14.0438C46.0988 13.0815 45.6113 11.8975 45.6113 10.4919C45.6113 9.08637 46.0988 7.9024 47.0738 6.94003C48.0488 5.97765 49.2328 5.49647 50.6257 5.49647C52.0313 5.49647 53.2153 5.97765 54.1776 6.94003C55.1527 7.9024 55.6402 9.08637 55.6402 10.4919C55.6402 11.8975 55.1527 13.0815 54.1776 14.0438C53.2153 15.0062 52.0313 15.4874 50.6257 15.4874ZM48.5174 12.6383C49.0872 13.2081 49.79 13.493 50.6257 13.493C51.4615 13.493 52.1643 13.2081 52.7341 12.6383C53.3039 12.0685 53.5888 11.353 53.5888 10.4919C53.5888 9.63087 53.3039 8.91542 52.7341 8.3456C52.1643 7.77577 51.4615 7.49086 50.6257 7.49086C49.79 7.49086 49.0872 7.77577 48.5174 8.3456C47.9475 8.91542 47.6626 9.63087 47.6626 10.4919C47.6626 11.353 47.9475 12.0685 48.5174 12.6383Z" fill="white"/>
<path d="M58.5822 8.36459C58.5822 8.68116 58.7532 8.93442 59.095 9.12436C59.4496 9.30164 59.8738 9.45992 60.3677 9.59921C60.8742 9.72584 61.3807 9.87779 61.8872 10.0551C62.3937 10.2324 62.8179 10.5363 63.1598 10.9668C63.5144 11.3847 63.6916 11.9165 63.6916 12.5623C63.6916 13.474 63.3371 14.1895 62.628 14.7086C61.9315 15.2278 61.0514 15.4874 59.9878 15.4874C59.0507 15.4874 58.2466 15.2911 57.5755 14.8986C56.9044 14.506 56.4169 13.9615 56.113 13.2651L57.8794 12.2394C58.2087 13.1511 58.9114 13.607 59.9878 13.607C61.0641 13.607 61.6023 13.2524 61.6023 12.5433C61.6023 12.2394 61.425 11.9925 61.0704 11.8025C60.7285 11.6126 60.3043 11.4543 59.7978 11.3277C59.304 11.1884 58.8038 11.0301 58.2973 10.8528C57.7908 10.6755 57.3602 10.3843 57.0057 9.9791C56.6638 9.56122 56.4928 9.03572 56.4928 8.40258C56.4928 7.52885 56.8221 6.82606 57.4805 6.29422C58.1517 5.76239 58.9811 5.49647 59.9688 5.49647C60.7539 5.49647 61.4503 5.67375 62.0581 6.02831C62.6786 6.3702 63.1535 6.85139 63.4827 7.47186L61.7542 8.44057C61.425 7.71879 60.8298 7.3579 59.9688 7.3579C59.5762 7.3579 59.247 7.44654 58.9811 7.62382C58.7152 7.78843 58.5822 8.03536 58.5822 8.36459Z" fill="white"/>
<path d="M66.7512 3.93895C66.4979 4.1922 66.194 4.31883 65.8395 4.31883C65.4849 4.31883 65.1747 4.1922 64.9088 3.93895C64.6555 3.67303 64.5289 3.36279 64.5289 3.00823C64.5289 2.65367 64.6555 2.34977 64.9088 2.09651C65.162 1.83059 65.4722 1.69763 65.8395 1.69763C66.2067 1.69763 66.5169 1.83059 66.7702 2.09651C67.0234 2.34977 67.1501 2.65367 67.1501 3.00823C67.1501 3.36279 67.0171 3.67303 66.7512 3.93895ZM64.8138 15.2405V5.74339H66.8652V15.2405H64.8138Z" fill="white"/>
<path d="M76.2368 5.74339H78.2502V14.8036C78.2502 16.2472 77.7754 17.3552 76.8257 18.1276C75.876 18.9 74.7236 19.2862 73.3687 19.2862C71.1781 19.2862 69.6775 18.5201 68.8671 16.9879L70.6336 15.9623C71.1274 16.9373 72.0518 17.4248 73.4067 17.4248C74.2931 17.4248 74.9832 17.1906 75.4771 16.722C75.9836 16.2662 76.2368 15.6267 76.2368 14.8036V13.645C75.4644 14.7466 74.3628 15.2975 72.9319 15.2975C71.5896 15.2975 70.4563 14.8226 69.5319 13.8729C68.6075 12.9105 68.1453 11.7519 68.1453 10.397C68.1453 9.04205 68.6075 7.88973 69.5319 6.94003C70.4563 5.97765 71.5896 5.49647 72.9319 5.49647C74.3628 5.49647 75.4644 6.0473 76.2368 7.14896V5.74339ZM71.0514 12.5243C71.6339 13.0941 72.3557 13.3791 73.2168 13.3791C74.0779 13.3791 74.7933 13.0941 75.3631 12.5243C75.9456 11.9545 76.2368 11.2454 76.2368 10.397C76.2368 9.54856 75.9456 8.83944 75.3631 8.26962C74.7933 7.69979 74.0779 7.41488 73.2168 7.41488C72.3557 7.41488 71.6339 7.69979 71.0514 8.26962C70.4816 8.83944 70.1967 9.54856 70.1967 10.397C70.1967 11.2454 70.4816 11.9545 71.0514 12.5243Z" fill="white"/>
<path d="M85.0669 5.49647C86.1559 5.49647 87.036 5.8447 87.7071 6.54115C88.3782 7.2376 88.7138 8.19364 88.7138 9.40927V15.2405H86.6624V9.61821C86.6624 8.90909 86.4725 8.36459 86.0926 7.98471C85.7127 7.60482 85.1935 7.41488 84.5351 7.41488C83.8133 7.41488 83.2308 7.64281 82.7876 8.09867C82.3444 8.54187 82.1228 9.22566 82.1228 10.15V15.2405H80.0714V1.94456H82.1228V6.95902C82.7433 5.98399 83.7247 5.49647 85.0669 5.49647Z" fill="white"/>
<path d="M95.6522 7.71879H93.2969V12.2774C93.2969 12.6699 93.3855 12.9549 93.5628 13.1321C93.7401 13.2967 93.9997 13.3917 94.3416 13.417C94.6961 13.4297 95.133 13.4234 95.6522 13.398V15.2405C94.082 15.4304 92.955 15.2975 92.2712 14.8416C91.5874 14.3731 91.2455 13.5183 91.2455 12.2774V7.71879H89.4981V5.74339H91.2455V3.69202L93.2969 3.08421V5.74339H95.6522V7.71879Z" fill="white"/>
<ellipse cx="17.7863" cy="9.95477" rx="7.62225" ry="7.62225" fill="#00C389"/>
<rect x="14.6086" y="8.87524" width="1.34674" height="4.7136" rx="0.673372" fill="white"/>
<rect x="19.9952" y="7.52856" width="1.34674" height="6.06035" rx="0.673372" fill="white"/>
<rect x="17.3019" y="5.50818" width="1.34674" height="8.08047" rx="0.673371" fill="white"/>
<path fill-rule="evenodd" clip-rule="evenodd" d="M10.4617 5.51966C12.6869 1.53889 17.7178 0.115683 21.6985 2.34083L22.3184 1.23193C17.7252 -1.33554 11.9203 0.306625 9.35283 4.89982L10.4617 5.51966Z" fill="#00C389"/>
<path fill-rule="evenodd" clip-rule="evenodd" d="M25.1262 14.2606C22.901 18.2414 17.8701 19.6646 13.8894 17.4394L13.2695 18.5483C17.8627 21.1158 23.6676 19.4736 26.2351 14.8805L25.1262 14.2606Z" fill="#00C389"/>
</g>
<defs>
<clipPath id="clip0">
<rect width="95.6522" height="20" fill="white"/>
</clipPath>
</defs>
</svg>
