<svg width="176" height="176" viewBox="0 0 176 176" fill="none" xmlns="http://www.w3.org/2000/svg">
<g clip-path="url(#clip0)">
<path fill-rule="evenodd" clip-rule="evenodd" d="M81.6401 153.932C110.902 153.932 134.624 130.211 134.624 100.949C134.624 71.6865 110.902 47.9648 81.6401 47.9648C52.3779 47.9648 28.6562 71.6865 28.6562 100.949C28.6562 130.211 52.3779 153.932 81.6401 153.932ZM82.9495 70.04C80.3644 70.04 78.2688 72.1357 78.2688 74.7208V121.528C78.2688 124.113 80.3644 126.209 82.9495 126.209C85.5347 126.209 87.6303 124.113 87.6303 121.528V74.7208C87.6303 72.1357 85.5347 70.04 82.9495 70.04ZM97.0045 88.7657C97.0045 86.1806 99.1001 84.085 101.685 84.085C104.27 84.085 106.366 86.1806 106.366 88.7657V121.531C106.366 124.116 104.27 126.212 101.685 126.212C99.1001 126.212 97.0045 124.116 97.0045 121.531V88.7657ZM59.5603 98.1268C59.5603 95.5417 61.6559 93.446 64.241 93.446C66.8261 93.446 68.9218 95.5417 68.9218 98.1268V121.531C68.9218 124.116 66.8261 126.211 64.241 126.211C61.6559 126.211 59.5603 124.116 59.5603 121.531V98.1268Z" fill="#DEE2E6"/>
<path opacity="0.7" fill-rule="evenodd" clip-rule="evenodd" d="M30.7071 70.1193C46.1745 42.4482 81.1452 32.5552 108.816 48.0226L113.125 40.3145C81.1968 22.4674 40.846 33.8824 22.9989 65.8107L30.7071 70.1193Z" fill="#DEE2E6"/>
<path opacity="0.7" fill-rule="evenodd" clip-rule="evenodd" d="M132.66 130.88C117.193 158.551 82.222 168.444 54.5508 152.976L50.2422 160.685C82.1704 178.532 122.521 167.117 140.368 135.188L132.66 130.88Z" fill="#DEE2E6"/>
<path opacity="0.7" fill-rule="evenodd" clip-rule="evenodd" d="M138.414 44H123.229V47.927H131.967L123 58.5302V61.6057H138.707V57.6793H129.448L138.414 47.0761V44Z" fill="#DEE2E6"/>
<path fill-rule="evenodd" clip-rule="evenodd" d="M130.002 29.8069L156.584 29.7958L156.581 23.1504L140.91 23.1563L156.078 5.20562L156.077 0L130.378 0.0105046L130.38 6.65643L145.168 6.65001L130 24.6012L130.002 29.8069Z" fill="#DEE2E6"/>
</g>
<defs>
<clipPath id="clip0">
<rect width="176" height="176" fill="white"/>
</clipPath>
</defs>
</svg>
