<svg width="72" height="72" viewBox="0 0 72 72" fill="none"
     xmlns="http://www.w3.org/2000/svg">
  <path d="M59 16L60.6205 20.3795L65 22L60.6205 23.6205L59 28L57.3795 23.6205L53 22L57.3795 20.3795L59 16Z"
        fill="#F2C94C"/>
  <path d="M18 50L19.3435 53.6565L23 55L19.3435 56.3435L18 60L16.6565 56.3435L13 55L16.6565 53.6565L18 50Z"
        fill="#F2C94C"/>
  <path d="M7.5 8L8.19791 10.8021L11 11.5L8.19791 12.1979L7.5 15L6.80209 12.1979L4 11.5L6.80209 10.8021L7.5 8Z"
        fill="#F2C94C"/>
  <path d="M49.2173 45.2623L45.2581 49.2215L38.3281 42.2915L42.2873 38.3323L49.2173 45.2623Z"
        fill="#9AAAB4"/>
  <path d="M59.4339 51.5174L51.2033 43.2868C50.1099 42.1934 48.3375 42.1934 47.2441 43.2868L43.2849 47.246C42.1915 48.3394 42.1915 50.1118 43.2849 51.2052L51.5155 59.4358C53.7023 61.624 57.2499 61.624 59.4367 59.4358C61.6207 57.2504 61.6193 53.7042 59.4339 51.5174Z"
        fill="#66757F"/>
  <path d="M29.9 48.8C40.3382 48.8 48.8 40.3382 48.8 29.9C48.8 19.4618 40.3382 11 29.9 11C19.4618 11 11 19.4618 11 29.9C11 40.3382 19.4618 48.8 29.9 48.8Z"
        fill="#8899A6"/>
  <path d="M29.8977 43.2001C37.243 43.2001 43.1977 37.2455 43.1977 29.9001C43.1977 22.5547 37.243 16.6001 29.8977 16.6001C22.5523 16.6001 16.5977 22.5547 16.5977 29.9001C16.5977 37.2455 22.5523 43.2001 29.8977 43.2001Z"
        fill="#C2E6FF"/>
</svg>
