<svg
	fill="#fff"
	height="22"
	viewBox="0 0 22 22"
	width="22"
	xmlns="http://www.w3.org/2000/svg"
>
	<path d="M11 13.0504V6.94872C10.827 6.96472 10.656 6.99172 10.482 6.99972H5.5C5.224 6.99972 5 7.22371 5 7.49969V7.99966H3.5C3.224 7.99966 3 8.22365 3 8.49963V11.4994C3 11.7754 3.224 11.9994 3.5 11.9994H5V12.4994C5 12.7754 5.224 12.9994 5.5 12.9994H5.803L7.813 18.357C7.93601 18.678 8.21101 18.911 8.54901 18.979C8.61601 18.993 8.68301 19 8.74901 19C9.01601 19 9.27001 18.894 9.45201 18.704L10.653 17.5131C10.96 17.2061 11.033 16.7271 10.837 16.3562L9.15901 12.9994H10.487C10.659 13.0074 10.829 13.0344 11 13.0504Z" />
	<path d="M18.918 3.24199C18.908 3.22499 18.899 3.21099 18.886 3.19499C18.831 3.12499 18.762 3.068 18.677 3.035C18.674 3.034 18.672 3.03 18.669 3.029C18.659 3.026 18.65 3.031 18.64 3.028C18.595 3.015 18.55 3 18.5 3C18.466 3 18.436 3.013 18.403 3.02C18.384 3.024 18.366 3.025 18.347 3.031C18.261 3.059 18.187 3.10699 18.128 3.17299C18.124 3.17699 18.118 3.17799 18.114 3.18199C16.555 5.07488 14.381 6.3408 12 6.80477V13.1954C14.381 13.6594 16.555 14.9243 18.114 16.8172C18.118 16.8222 18.125 16.8242 18.13 16.8302C18.165 16.8692 18.208 16.9002 18.254 16.9262C18.269 16.9352 18.281 16.9482 18.296 16.9552C18.359 16.9822 18.427 16.9992 18.5 16.9992C18.557 16.9992 18.613 16.9892 18.669 16.9702C18.672 16.9692 18.674 16.9652 18.677 16.9642C18.762 16.9312 18.831 16.8752 18.886 16.8042C18.898 16.7882 18.907 16.7742 18.918 16.7572C18.966 16.6802 19 16.5952 19 16.4992V3.49997C19 3.40398 18.966 3.31898 18.918 3.24199Z" />
</svg>