<svg width="649" height="665" viewBox="0 0 649 665" fill="none" xmlns="http://www.w3.org/2000/svg">
<g opacity="0.04">
<path d="M195.062 121.982C260.041 5.73462 406.953 -35.8262 523.2 29.1528L541.301 -3.22926C407.17 -78.2051 237.655 -30.2503 162.679 103.881L195.062 121.982Z" fill="#33334F"/>
<path fill-rule="evenodd" clip-rule="evenodd" d="M631.542 251.498C631.542 374.429 531.886 474.084 408.955 474.084C286.024 474.084 186.369 374.429 186.369 251.498C186.369 128.567 286.024 28.9115 408.955 28.9115C531.886 28.9115 631.542 128.567 631.542 251.498ZM414.473 121.645C403.613 121.645 394.809 130.449 394.809 141.309V337.949C394.809 348.809 403.613 357.613 414.473 357.613C425.333 357.613 434.137 348.809 434.137 337.949V141.309C434.137 130.449 425.333 121.645 414.473 121.645ZM473.458 200.308C473.458 189.448 482.262 180.644 493.122 180.644C503.982 180.644 512.786 189.448 512.786 200.308V337.956C512.786 348.816 503.982 357.62 493.122 357.62C482.262 357.62 473.458 348.816 473.458 337.956V200.308ZM316.159 239.635C316.159 228.775 324.963 219.971 335.823 219.971C346.683 219.971 355.487 228.775 355.487 239.635V337.955C355.487 348.815 346.683 357.619 335.823 357.619C324.963 357.619 316.159 348.815 316.159 337.955V239.635Z" fill="#33334F"/>
<path d="M295.159 470.067C411.405 535.046 558.318 493.486 623.297 377.239L655.679 395.339C580.704 529.47 411.189 577.425 277.058 502.449L295.159 470.067Z" fill="#33334F"/>
<path fill-rule="evenodd" clip-rule="evenodd" d="M426.73 609.642C235.172 623.923 68.0094 480.057 53.3608 288.31L0 292.288C16.9023 513.535 209.783 679.533 430.81 663.056L426.73 609.642Z" fill="#33334F"/>
<path fill-rule="evenodd" clip-rule="evenodd" d="M391.78 -109.458C583.337 -123.739 750.5 20.1262 765.149 211.873L818.51 207.895C801.607 -13.3515 608.727 -179.35 387.699 -162.872L391.78 -109.458Z" fill="#33334F"/>
</g>
</svg>
