<svg width="72" height="72" viewBox="0 0 72 72" fill="none"
     xmlns="http://www.w3.org/2000/svg">
  <path
          d="M51.0555 35.4966C49.6847 36.9466 48.7875 39.7564 49.0583 41.7369L50.2972 50.6828C50.5708 52.6647 49.3236 53.5814 47.525 52.7231L39.3987 48.8397C37.6001 47.9786 34.6654 47.9911 32.871 48.8647L24.7794 52.812C22.9863 53.6856 21.7336 52.7759 21.9919 50.7953L23.1627 41.8383C23.4211 39.8564 22.503 37.055 21.1211 35.6147L14.8795 29.1035C13.4962 27.6633 13.9698 26.1841 15.9281 25.8188L24.7752 24.1688C26.7335 23.8035 29.1029 22.0605 30.0432 20.2952L34.2807 12.3271C35.2182 10.5618 36.7654 10.5576 37.7154 12.3146L42.0139 20.2493C42.9667 22.0063 45.3472 23.7313 47.3111 24.0799L56.1694 25.6646C58.1304 26.0146 58.6152 27.4897 57.2443 28.941L51.0555 35.4966Z"
          fill="#FFAC33"/>
  <path
          d="M24.5877 14.0283C26.0085 15.9908 27.9849 20.8575 26.9724 21.5936C25.9613 22.3311 21.9627 18.9408 20.5419 16.9783C19.1225 15.0158 19.2433 13.2728 20.36 12.4589C21.4766 11.6436 23.1655 12.0672 24.5877 14.0283ZM51.4597 16.9783C50.0403 18.9408 46.0417 22.3325 45.0278 21.5922C44.0153 20.8561 45.9931 15.9908 47.4153 14.0297C48.8361 12.0658 50.5236 11.6422 51.6416 12.4589C52.7569 13.2728 52.8777 15.0158 51.4597 16.9783ZM34.0904 57.2368C34.089 54.8118 35.3376 49.7076 36.5918 49.7076C37.8376 49.7076 39.089 54.8118 39.0876 57.2354C39.0876 59.6618 37.9709 61.0021 36.5876 60.9993C35.2071 61.0021 34.0904 59.6632 34.0904 57.2368ZM56.561 44.3729C54.2624 43.6243 49.8139 40.8548 50.2014 39.6576C50.5861 38.4659 55.8083 38.8506 58.1041 39.6006C60.4027 40.3506 61.3276 41.8298 60.8999 43.1506C60.4721 44.4701 58.8596 45.1229 56.561 44.3729ZM13.8934 39.602C16.192 38.852 21.4128 38.4673 21.8016 39.6631C22.185 40.8534 17.735 43.627 15.4392 44.3743C13.142 45.1243 11.5253 44.4715 11.1017 43.152C10.674 41.8326 11.5934 40.3534 13.8934 39.602Z"
          fill="#FFD983"/>
</svg>
